<?xml version="1.0" encoding="utf-8"?>
<!-- Generator: Adobe Illustrator 18.1.1, SVG Export Plug-In . SVG Version: 6.00 Build 0)  -->
<svg version="1.1" id="Layer_1" xmlns="http://www.w3.org/2000/svg" xmlns:xlink="http://www.w3.org/1999/xlink" x="0px" y="0px"
	 viewBox="0 0 200 65.2" enable-background="new 0 0 200 65.2" xml:space="preserve">
<g>
	<path fill="#F1F2F2" d="M51.8,43c-1.9,1.6-3.3,2.5-4.4,2.5c-1.1,0-1.8-0.5-2.2-1.6c-0.1-0.4-0.2-0.7-0.2-1.1c0-0.9,0.1-1.7,0.4-2.6
		c0.3-0.8,0.6-1.6,0.8-2.3l1.8-4.6c0.7-1.9,1.1-3.2,1.3-4c0.1-0.7,0.1-1.3-0.1-1.5c-0.2-0.3-0.4-0.5-0.7-0.7s-0.5-0.4-0.7-0.5
		c-0.2-0.2-0.3-0.4-0.3-0.6s0.1-0.5,0.3-0.7s0.5-0.4,0.8-0.6c0.7-0.3,1.3-0.5,2-0.5c0.7,0,1.2,0.1,1.7,0.2c0.4,0.1,0.7,0.3,1,0.5
		c0.5,0.4,0.8,1,0.8,1.6c0,0.6-0.1,1.3-0.3,2.1c-0.2,0.8-0.5,1.6-0.8,2.5c-0.3,0.9-0.7,1.8-1.1,2.8l-1.1,2.8c-0.9,2.3-1.4,4-1.6,5.1
		c1.3-0.4,3-2,5.1-4.7c2.3-2.9,4.3-6.3,6.1-10.1c0.2-0.5,0.5-0.8,0.8-0.9c0.5-0.2,1.1-0.3,1.9-0.3c1.2,0,1.8,0.4,1.8,1.1
		c0,0.4-0.1,0.9-0.3,1.4c-0.3,0.5-0.5,0.9-0.6,1.3l-0.8,1.6c-1.6,3.2-2.4,5.8-2.4,7.8c0,1.4,0.4,2.4,1.1,2.9c0.2,0.2,0.6,0.2,1,0.2
		s1-0.2,1.6-0.5c0.6-0.3,1.2-0.8,1.8-1.3c0.6-0.6,1.1-1.2,1.6-1.9c0.5-0.7,0.9-1.5,1.3-2.4c0.7-1.8,1.1-3.4,1.1-4.7
		c0-2.3-0.4-4.1-1.3-5.2c-0.3-0.4-0.2-0.8,0.3-1.2c0.5-0.5,1.3-0.8,2.4-0.8c1.3,0,2.2,0.7,2.7,2.2c0.2,0.6,0.3,1.4,0.3,2.5
		c0,1.1-0.2,2.4-0.6,3.7c-0.4,1.4-0.9,2.7-1.6,3.9c-0.7,1.3-1.4,2.4-2.3,3.5c-0.9,1.1-1.8,2-2.8,2.8c-2.1,1.7-4,2.6-5.7,2.6
		c-3,0-4.5-2-4.5-5.9c0-0.9,0.1-1.8,0.2-2.6C55.3,39.4,53.6,41.4,51.8,43z"/>
	<path fill="#F1F2F2" d="M91,28.1c-0.7,0-2.1,1.1-4,3.4l-1.7,2.1l-3.3,4.3c-0.8,1.5-1.4,2.7-1.9,3.7L79.1,44c-0.3,0.6-0.5,1-0.7,1.2
		s-0.5,0.4-0.9,0.4c-0.4,0-0.7-0.1-1-0.2c-0.3-0.1-0.6-0.3-0.9-0.5c-0.5-0.4-0.8-0.9-0.8-1.4c0-0.2,0.1-0.6,0.4-1.2l0.8-1.7
		c2.5-5.2,4.8-11.9,6.9-19.9c0.8-3,1.3-5.6,1.7-8c0.1-1.1,0.7-1.7,1.7-1.7c0.6,0,1.1,0.1,1.5,0.4c0.8,0.6,1.2,1.2,1.1,1.9
		c0,0.7-0.1,1.4-0.3,2.2s-0.4,1.7-0.6,2.7c-0.3,1-0.6,2-0.9,3.1c-0.9,2.7-1.6,4.7-2,5.9c-1.3,3.7-2.2,5.8-2.5,6.4
		c0.2-0.2,0.5-0.6,0.8-1c2.5-3.2,4-5.2,4.6-5.8s1.1-1.1,1.5-1.5c0.9-0.7,1.9-1.1,3.3-1.1c1.1,0,1.9,0.4,2.6,1.1
		c0.6,0.7,0.9,1.4,0.9,2.3c0,0.8-0.1,1.6-0.3,2.2c-0.2,0.7-0.4,1.3-0.7,2c-0.3,0.7-0.6,1.4-0.9,2.1l-1,2.1c-1,2.2-1.4,3.8-1.4,4.8
		c0,0.7,0.3,1.1,0.9,1.1c0.6,0,1.1-0.1,1.6-0.4c0.5-0.2,0.8-0.4,0.9-0.4c0.3,0,0.4,0.1,0.4,0.4c0,1.2-0.6,2.2-1.8,3
		c-0.8,0.6-1.6,0.8-2.3,0.8c-0.7,0-1.3-0.1-1.7-0.2c-0.5-0.1-0.9-0.4-1.2-0.7c-0.8-0.7-1.2-1.8-1.2-3.2c0-1.5,0.5-3.5,1.5-5.8
		l2.2-4.7c0.4-0.9,0.6-1.6,0.6-2.1S91.6,28.1,91,28.1z"/>
	<path fill="#F1F2F2" d="M106.3,41.6c0.4,0,0.5,0.2,0.5,0.7c0,0.6-0.3,1.2-0.8,1.9c-0.8,1-1.9,1.4-3.3,1.4c-1.6,0-2.7-0.6-3.2-1.9
		c-0.2-0.4-0.3-1-0.3-1.6c0-0.6,0.1-1.3,0.3-2.1s0.5-1.6,0.8-2.5s0.7-1.7,1.1-2.6l1.1-2.6c0.8-1.9,1.2-3.2,1.2-3.8s-0.1-1-0.2-1.2
		c-0.1-0.2-0.3-0.3-0.4-0.5l-0.4-0.3c-0.1-0.1-0.2-0.3-0.2-0.5s0.1-0.5,0.3-0.7s0.4-0.4,0.7-0.6c0.6-0.3,1.3-0.5,2.1-0.5
		c2,0,3,0.5,3,1.6c0,1.2-0.3,2.6-1,4.2c-0.6,1.6-1.2,2.8-1.6,3.8l-1.2,2.8c-0.9,2.1-1.3,3.6-1.3,4.5c0,0.6,0.3,0.9,0.9,0.9
		c0.6,0,1-0.1,1.3-0.2C106,41.6,106.2,41.6,106.3,41.6z M110.5,19.5c-0.3,0.3-0.6,0.6-1,0.8c-0.4,0.2-0.8,0.3-1.2,0.4
		c-0.4,0-0.8,0-1.2-0.2c-0.4-0.2-0.7-0.4-1-0.8c-0.6-0.7-0.9-1.4-0.9-2.1c0-0.7,0.1-1.2,0.3-1.6s0.5-0.6,0.8-0.8
		c0.7-0.4,1.3-0.6,1.8-0.6c0.6,0,1,0,1.3,0.1c0.3,0.1,0.6,0.2,0.9,0.4c0.7,0.4,1,1,1,1.6c0,0.6-0.1,1.2-0.3,1.6
		C111,18.8,110.8,19.2,110.5,19.5z"/>
	<path fill="#F1F2F2" d="M110.5,41.8c0-0.4,0.1-0.8,0.3-1.2c0.2-0.4,0.4-0.7,0.7-0.9c0.6-0.5,1.2-0.8,1.8-0.8c0.5,0,0.8,0.3,0.8,0.8
		c0,1.4,0.5,2.4,1.4,3c0.3,0.2,0.7,0.3,1.1,0.3c0.4,0,0.7,0,0.9-0.1s0.5-0.2,0.7-0.4c0.5-0.4,0.7-0.9,0.7-1.4c0-0.5-0.1-1-0.4-1.5
		c-0.2-0.5-0.6-0.9-0.9-1.4l-1.2-1.6c-1.6-2.2-2.4-4.2-2.4-6c0-1.5,0.6-2.9,1.9-4.1c1.5-1.4,3.3-2.1,5.6-2.1c2,0,3.6,0.5,4.7,1.5
		c0.9,0.8,1.4,1.7,1.4,2.8c0,1.1-0.4,1.9-1.2,2.6c-0.7,0.6-1.5,0.8-2.2,0.6c-0.3-0.1-0.6-0.2-0.8-0.5c-0.2-0.3-0.2-0.6-0.1-0.9
		c0.1-0.3,0.2-0.7,0.2-1.1c0-0.4-0.1-0.7-0.2-1c-0.1-0.3-0.3-0.6-0.6-0.8c-0.5-0.4-1-0.7-1.5-0.7s-1,0.1-1.3,0.2
		c-0.3,0.1-0.6,0.3-0.9,0.5c-0.5,0.5-0.8,1.1-0.8,1.8c0,0.7,0.1,1.3,0.4,1.8c0.2,0.5,0.5,1,0.9,1.5c0.4,0.5,0.8,1,1.2,1.6
		c0.4,0.5,0.8,1.1,1.2,1.7c0.9,1.4,1.3,2.6,1.3,3.6c0,1-0.2,1.9-0.7,2.6c-0.4,0.7-1,1.3-1.7,1.8c-1.5,1.1-3.1,1.7-5,1.7
		c-1.8,0-3.1-0.4-4.2-1.3C110.9,43.6,110.5,42.7,110.5,41.8z"/>
	<path fill="#F1F2F2" d="M142.6,45.5c-3.1,0-5.5-2.9-7.4-8.8c-0.7,1.3-1.3,2.5-1.8,3.6l-1.2,2.8c-0.4,0.8-0.7,1.4-1,1.8
		c-0.3,0.4-0.6,0.6-1,0.6c-0.4,0-0.7-0.1-1-0.2c-0.3-0.1-0.6-0.3-0.8-0.5c-0.5-0.4-0.7-0.9-0.7-1.4c0-0.2,0.1-0.6,0.4-1.2l0.8-1.7
		c2.5-5.2,4.8-11.9,6.9-19.9c0.8-3,1.3-5.6,1.7-8c0.1-1.1,0.7-1.7,1.7-1.7c0.6,0,1,0.1,1.4,0.4c0.7,0.6,1.1,1.2,1.1,1.9
		c0,0.7-0.1,1.4-0.3,2.3s-0.4,1.8-0.6,2.8c-0.3,1-0.6,2-0.9,3.1c-0.9,2.8-1.5,4.9-2,6.1l-1.9,5.3c-0.2,0.6-0.4,1.1-0.6,1.4
		c3.2-1.2,5.5-2.7,7.1-4.2c1-1,1.4-1.8,1.4-2.7c0-0.4-0.1-0.7-0.4-0.9c-0.3-0.2-0.5-0.3-0.6-0.4s-0.1-0.3,0-0.6s0.3-0.5,0.8-0.8
		c0.4-0.2,0.9-0.4,1.5-0.4c0.6,0,1.1,0.1,1.5,0.2s0.8,0.3,1,0.5c0.7,0.5,1,1.1,1,2c0,0.9-0.2,1.7-0.6,2.4c-0.4,0.7-0.9,1.4-1.7,2.1
		c-1.5,1.3-4,2.6-7.4,3.8c0.4,1.8,1.2,3.4,2.3,4.8c1.1,1.3,2.1,2,3,2c0.5,0,0.9-0.1,1.2-0.2l0.7-0.4c0.1-0.1,0.3-0.1,0.4-0.1
		c0.3,0,0.5,0.2,0.5,0.6c0,0.4-0.1,0.7-0.2,0.9c-0.1,0.3-0.3,0.5-0.5,0.8c-0.2,0.3-0.5,0.6-0.9,0.9
		C144.8,45.2,143.7,45.5,142.6,45.5z"/>
	<path fill="#F1F2F2" d="M150.4,44.7c-0.3-0.3-0.5-0.6-0.7-1c-0.2-0.4-0.3-0.8-0.3-1.3s0.1-1,0.3-1.4c0.2-0.4,0.4-0.7,0.7-1
		c0.5-0.4,1.1-0.7,1.7-0.7c0.6,0,1.1,0,1.5,0.1c0.4,0.1,0.8,0.2,1.2,0.4c0.8,0.4,1.3,1.1,1.3,1.9c0,1-0.3,1.9-1,2.7
		c-0.6,0.7-1.3,1.1-1.9,1.2c-0.7,0.1-1.2,0-1.6-0.2C151.1,45.2,150.7,45,150.4,44.7z"/>
	<path fill="#F1F2F2" d="M162.1,44.5c-0.3-0.4-0.6-0.8-0.8-1.4c-0.2-0.6-0.3-1.2-0.3-1.9c0-0.7,0.2-1.7,0.5-2.9
		c0.3-1.2,0.8-2.6,1.3-4.2l1.7-5.1c2.4-7.1,3.8-12.5,4.2-16.4c0.1-1.1,0.7-1.7,1.7-1.7c0.6,0,1.1,0.1,1.5,0.4c0.8,0.6,1.2,1.3,1.1,2
		s-0.2,1.6-0.4,2.7s-0.5,2.2-0.9,3.4c-0.4,1.2-0.8,2.6-1.3,3.9l-2.8,8.3c-1.6,4.7-2.4,7.7-2.4,9.1c0,0.7,0.3,1.1,0.9,1.1
		c0.6,0,1.1-0.1,1.6-0.4c0.5-0.2,0.8-0.4,0.9-0.4c0.3,0,0.4,0.1,0.4,0.4c0,1.2-0.6,2.2-1.9,3c-0.8,0.6-1.6,0.8-2.3,0.8
		c-0.7,0-1.2-0.1-1.7-0.2C162.9,45.2,162.5,44.9,162.1,44.5z"/>
	<path fill="#F1F2F2" d="M172.7,43.4c-0.2-0.4-0.2-1-0.2-1.5c0-0.6,0.1-1.2,0.3-1.9c0.2-0.7,0.5-1.5,0.8-2.2c0.3-0.8,0.7-1.6,1-2.4
		l1.1-2.4c1.4-3.1,1.9-5,1.6-5.6c-0.2-0.3-0.5-0.5-0.9-0.8c-0.2-0.1-0.2-0.3-0.2-0.5s0.1-0.5,0.3-0.7c0.2-0.2,0.5-0.4,0.8-0.6
		c0.7-0.3,1.3-0.5,2-0.5c0.7,0,1.2,0.1,1.5,0.2c0.3,0.1,0.6,0.3,0.8,0.5c0.4,0.4,0.7,0.9,0.7,1.5s-0.1,1.2-0.3,1.8
		c-0.2,0.7-0.4,1.4-0.7,2.2c-0.3,0.8-0.6,1.6-0.9,2.4c-0.9,2.2-1.6,3.7-1.9,4.4l-0.8,1.6c-0.4,0.9-0.6,1.6-0.6,2
		c0,0.4,0.1,0.6,0.2,0.8c0.1,0.2,0.3,0.2,0.7,0.2s0.7-0.1,1.1-0.4c0.4-0.2,0.8-0.6,1.3-1c0.4-0.4,0.9-0.9,1.4-1.4
		c0.5-0.5,1-1.1,1.4-1.7c1.2-1.5,2.1-2.8,2.7-3.9c2.9-5.4,4.5-8.2,4.7-8.5c0.4-0.6,0.9-0.9,1.4-0.9s0.9,0.1,1.2,0.2
		c0.3,0.1,0.6,0.2,0.9,0.4c0.5,0.4,0.7,0.8,0.5,1.3c-0.2,0.5-0.5,1.2-0.8,2c-2.6,7.5-4.3,12.1-5,14c-0.8,1.8-1.4,3.3-2,4.5
		s-1.2,2.3-2,3.4s-1.6,2.2-2.5,3.1c-2,2.1-3.8,3.3-5.6,3.4c-0.7,0.1-1.2,0-1.6-0.3c-0.7-0.4-1-0.8-1-1.2c0-0.4,0.3-0.6,0.9-0.8
		s1.3-0.4,1.9-0.9c0.7-0.4,1.3-0.9,1.9-1.5c1.8-1.7,3.2-3.6,4.2-5.6c0.8-1.8,1.5-3.4,2-5l1.6-4.8c-0.4,0.5-0.8,1-1.3,1.7l-1.5,2
		c-1.3,1.6-2.3,2.8-3.2,3.4c-1.6,1.3-3,1.9-4.3,1.9C174.4,45.6,173.3,44.8,172.7,43.4z"/>
</g>
<g>
	<g>
		<path fill="none" stroke="#F1F2F2" stroke-width="0.2797" stroke-miterlimit="10" d="M15,12.7c0.9-1.6,2.2-2.6,4-2.5
			c1.6,0.1,2.9,0.9,3.8,2.4c2.8,1,4.5,3.2,5.4,6.1c-0.7-5.8-3.2-10-9.1-9.9c-4.5,0.1-7.1,2.6-8.4,6.5C11.7,14.2,13.2,13.3,15,12.7z"
			/>
		<path fill="none" stroke="#F1F2F2" stroke-width="0.2797" stroke-miterlimit="10" d="M22.7,12.6c-0.9-1.5-2.1-2.3-3.8-2.4
			c-1.8-0.1-3.1,0.9-4,2.5c0.8-0.2,1.7-0.4,2.7-0.5C19.6,12,21.3,12.1,22.7,12.6z"/>
		<path fill="none" stroke="#F1F2F2" stroke-width="0.2797" stroke-miterlimit="10" d="M23.9,52.2l0.3-0.1
			c4.5-10.1,9.3-24.2,4.5-30.8C30.7,33.1,23.9,52.2,23.9,52.2z"/>
		<path fill="none" stroke="#F1F2F2" stroke-width="0.2797" stroke-miterlimit="10" d="M14.1,52.3c-0.1,0.2-0.9-2.5-2-6.1
			c-2-5-4.4-12.4-4.7-19c-1.3,10.3,6.3,25,6.3,25"/>
		<path fill="none" stroke="#F1F2F2" stroke-width="0.2797" stroke-miterlimit="10" d="M28.7,21.3c-0.2-0.9-0.4-1.8-0.6-2.6
			c0.1,0.6,0.1,1.3,0.2,2C28.4,20.9,28.6,21.1,28.7,21.3z"/>
		<path fill="none" stroke="#F1F2F2" stroke-width="0.2797" stroke-miterlimit="10" d="M9.7,20.7c0.1-2,0.4-3.8,1-5.4
			c-2.8,2.8-3.5,7.1-3.3,11.9c0.3-2,0.9-3.9,1.9-5.4C9.4,21.4,9.5,21.1,9.7,20.7z"/>
		<path fill="none" stroke="#F1F2F2" stroke-width="0.2797" stroke-miterlimit="10" d="M22.7,12.6c0.9,1.4,1.4,3.3,1.8,5.6
			c1.6,0.5,2.8,1.4,3.8,2.5c0-0.7-0.1-1.3-0.2-2C27.2,15.8,25.5,13.6,22.7,12.6z"/>
		<path fill="none" stroke="#F1F2F2" stroke-width="0.2797" stroke-miterlimit="10" d="M13.7,16.2c0.3-1.4,0.7-2.6,1.3-3.5
			c-1.8,0.5-3.2,1.4-4.3,2.5c-0.5,1.6-0.9,3.5-1,5.4C10.4,18.7,11.7,17.1,13.7,16.2z"/>
		<path fill="none" stroke="#F1F2F2" stroke-width="0.2797" stroke-miterlimit="10" d="M18.6,15.7c0.1-0.7,0.2-1.1,0.4-1.1
			c0.2,0,0.3,0.4,0.4,1.2c1.4,0.3,2.5,1,3.4,2c0.6,0.1,1.2,0.3,1.7,0.4c-0.3-2.3-0.9-4.2-1.8-5.6c-1.4-0.5-3.1-0.7-5.1-0.4
			c-1,0.1-1.9,0.3-2.7,0.5c-0.5,1-1,2.1-1.3,3.5c0.9-0.4,1.9-0.6,3.1-0.7C17.4,15.5,18,15.6,18.6,15.7z"/>
		<path fill="none" stroke="#F1F2F2" stroke-width="0.2797" stroke-miterlimit="10" d="M18.9,14.6c-0.2,0-0.3,0.4-0.4,1.1
			c0.3,0,0.5,0.1,0.8,0.2C19.2,15,19.1,14.6,18.9,14.6z"/>
		<path fill="none" stroke="#F1F2F2" stroke-width="0.2797" stroke-miterlimit="10" d="M23.9,52.2c0,0,6.8-19.1,4.8-30.9
			c-0.1-0.2-0.3-0.4-0.5-0.6c0.3,6.9-1.5,15.5-3.3,22c-0.9,5.4-2.1,9.5-2.1,9.5"/>
		<path fill="none" stroke="#F1F2F2" stroke-width="0.2797" stroke-miterlimit="10" d="M9.3,21.7c-1.1,1.5-1.7,3.4-1.9,5.4
			c0.4,6.6,2.8,14,4.7,19C10,39.4,7.4,28.6,9.3,21.7z"/>
		<path fill="none" stroke="#F1F2F2" stroke-width="0.2797" stroke-miterlimit="10" d="M25,42.7c1.7-6.5,3.6-15.1,3.3-22
			c-0.9-1.1-2.2-1.9-3.8-2.5c0.1,0.9,0.2,1.9,0.3,2.9C27,26.9,26.2,35.9,25,42.7z"/>
		<path fill="none" stroke="#F1F2F2" stroke-width="0.2797" stroke-miterlimit="10" d="M24.8,21.2c-0.1-1-0.2-2-0.3-2.9
			c-0.5-0.2-1.1-0.3-1.7-0.4C23.6,18.7,24.3,19.8,24.8,21.2z"/>
		<path fill="none" stroke="#F1F2F2" stroke-width="0.2797" stroke-miterlimit="10" d="M14.7,52.2c0,0-1.2-2.4-2.6-6
			c1.1,3.6,1.9,6.2,1.9,6.2"/>
		<path fill="none" stroke="#F1F2F2" stroke-width="0.2797" stroke-miterlimit="10" d="M9.7,20.7c-0.1,0.3-0.2,0.7-0.3,1
			c0.1-0.1,0.2-0.3,0.3-0.4C9.6,21.1,9.6,20.9,9.7,20.7z"/>
		<path fill="none" stroke="#F1F2F2" stroke-width="0.2797" stroke-miterlimit="10" d="M13.3,18.6c0.1-0.8,0.2-1.6,0.4-2.4
			c-2,0.8-3.2,2.4-4,4.5c0,0.2,0,0.4,0,0.6C10.5,20.2,11.7,19.3,13.3,18.6z"/>
		<path fill="none" stroke="#F1F2F2" stroke-width="0.2797" stroke-miterlimit="10" d="M19.4,15.8c0.1,0.5,0.1,1,0.2,1.7
			c0.2,0,0.4,0,0.7,0c0.9,0,1.8,0.1,2.6,0.3C21.8,16.8,20.7,16.2,19.4,15.8z"/>
		<path fill="none" stroke="#F1F2F2" stroke-width="0.2797" stroke-miterlimit="10" d="M18.4,17.5c0-0.8,0.1-1.4,0.2-1.9
			c-0.6-0.1-1.1-0.1-1.8-0.1c-1.2,0.1-2.2,0.3-3.1,0.7c-0.2,0.7-0.3,1.5-0.4,2.4C14.7,18,16.4,17.6,18.4,17.5z"/>
		<path fill="none" stroke="#F1F2F2" stroke-width="0.2797" stroke-miterlimit="10" d="M18.6,15.7c-0.1,0.5-0.1,1.1-0.2,1.9
			c0.4,0,0.7,0,1.1,0c0-0.7-0.1-1.2-0.2-1.7C19.1,15.8,18.8,15.7,18.6,15.7z"/>
		<path fill="none" stroke="#F1F2F2" stroke-width="0.2797" stroke-miterlimit="10" d="M15.7,53c0,0-6.7-18.8-6.1-31.6
			c-0.1,0.1-0.2,0.3-0.3,0.4c-1.9,6.8,0.7,17.7,2.8,24.4c1.4,3.6,2.8,6.6,2.8,6.6"/>
		<path fill="none" stroke="#F1F2F2" stroke-width="0.2797" stroke-miterlimit="10" d="M22.8,52.8c0,0,1.3-4.7,2.2-10.1
			c-1.5,5.5-2.9,9.5-2.9,9.5"/>
		<path fill="none" stroke="#F1F2F2" stroke-width="0.2797" stroke-miterlimit="10" d="M16.1,52.2c0,0-4.4-21.3-2.8-33.6
			c-1.5,0.7-2.7,1.6-3.6,2.7C9,34.1,15.4,52.2,15.4,52.2"/>
		<path fill="none" stroke="#F1F2F2" stroke-width="0.2797" stroke-miterlimit="10" d="M21.8,53.1c0,0,1.8-4.9,3.3-10.4
			c1.2-6.8,2-15.8-0.2-21.5c0.9,12.4-3.1,31-3.1,31"/>
		<path fill="none" stroke="#F1F2F2" stroke-width="0.2797" stroke-miterlimit="10" d="M21.5,53.1c0,0,4.1-19.6,3.3-32
			c-0.5-1.3-1.2-2.5-2.1-3.4c-0.8-0.1-1.6-0.2-2.6-0.3c-0.2,0-0.4,0-0.7,0c0,0,0,0,0,0c0.2,0,0.4,0,0.7,0c8,1.1,0.6,34.6,0.6,34.6"
			/>
		<path fill="none" stroke="#F1F2F2" stroke-width="0.2797" stroke-miterlimit="10" d="M18.3,52.2c0,0-5-29.5,0.1-34.1
			c0-0.2,0-0.4,0-0.6c-2,0.1-3.7,0.5-5.1,1.1c-1.6,12.2,3,34.5,3,34.5"/>
		<path fill="none" stroke="#F1F2F2" stroke-width="0.2797" stroke-miterlimit="10" d="M18.4,17.5c0,0.2,0,0.4,0,0.6
			c0.3-0.3,0.7-0.5,1.2-0.6c0,0,0,0,0,0C19.1,17.5,18.8,17.5,18.4,17.5z"/>
		<path fill="none" stroke="#F1F2F2" stroke-width="0.2797" stroke-miterlimit="10" d="M19,53.5c0,0-1.1-26-0.6-35.4
			c-5.1,4.6,0.1,35.3,0.1,35.3"/>
		<path fill="none" stroke="#F1F2F2" stroke-width="0.2797" stroke-miterlimit="10" d="M20.6,53.3c0,0,7.6-34.7-0.4-35.8
			c-0.2,0-0.5,0-0.7,0c0.6,8.8,0,34.6,0,34.6"/>
		<path fill="none" stroke="#F1F2F2" stroke-width="0.2797" stroke-miterlimit="10" d="M19.5,53.4c0,0,0.7-27,0.1-35.9
			c-0.4,0.1-0.8,0.3-1.2,0.6C17.9,27.4,19,53.4,19,53.4"/>
	</g>
	<path fill="none" stroke="#F1F2F2" stroke-width="0.2797" stroke-linecap="round" stroke-miterlimit="10" d="M13.7,52.1
		c0.9,0.5,2.8,1.4,5.5,1.3c2.5-0.1,4.3-0.8,5.2-1.3"/>
</g>
</svg>
