<?xml version="1.0" encoding="utf-8"?>
<!-- Generator: Adobe Illustrator 18.1.1, SVG Export Plug-In . SVG Version: 6.00 Build 0)  -->
<svg version="1.1" id="Layer_1" xmlns="http://www.w3.org/2000/svg" xmlns:xlink="http://www.w3.org/1999/xlink" x="0px" y="0px"
	 viewBox="7 110 200 57" enable-background="new 7 110 200 57" xml:space="preserve">
<g>
	<path fill="#58595B" d="M58.8,149.4c-1.9,1.6-3.3,2.5-4.4,2.5c-1.1,0-1.8-0.5-2.2-1.6c-0.1-0.4-0.2-0.7-0.2-1.1
		c0-0.9,0.1-1.7,0.4-2.6c0.3-0.8,0.6-1.6,0.8-2.3l1.8-4.6c0.7-1.9,1.1-3.2,1.3-4c0.1-0.7,0.1-1.3-0.1-1.5c-0.2-0.3-0.4-0.5-0.7-0.7
		s-0.5-0.4-0.7-0.5c-0.2-0.2-0.3-0.4-0.3-0.6s0.1-0.5,0.3-0.7s0.5-0.4,0.8-0.6c0.7-0.3,1.3-0.5,2-0.5s1.2,0.1,1.7,0.2
		c0.4,0.1,0.7,0.3,1,0.5c0.5,0.4,0.8,1,0.8,1.6s-0.1,1.3-0.3,2.1s-0.5,1.6-0.8,2.5s-0.7,1.8-1.1,2.8l-1.1,2.8
		c-0.9,2.3-1.4,4-1.6,5.1c1.3-0.4,3-2,5.1-4.7c2.3-2.9,4.3-6.3,6.1-10.1c0.2-0.5,0.5-0.8,0.8-0.9c0.5-0.2,1.1-0.3,1.9-0.3
		c1.2,0,1.8,0.4,1.8,1.1c0,0.4-0.1,0.9-0.3,1.4c-0.3,0.5-0.5,0.9-0.6,1.3l-0.8,1.6c-1.6,3.2-2.4,5.8-2.4,7.8c0,1.4,0.4,2.4,1.1,2.9
		c0.2,0.2,0.6,0.2,1,0.2c0.4,0,1-0.2,1.6-0.5c0.6-0.3,1.2-0.8,1.8-1.3c0.6-0.6,1.1-1.2,1.6-1.9c0.5-0.7,0.9-1.5,1.3-2.4
		c0.7-1.8,1.1-3.4,1.1-4.7c0-2.3-0.4-4.1-1.3-5.2c-0.3-0.4-0.2-0.8,0.3-1.2c0.5-0.5,1.3-0.8,2.4-0.8c1.3,0,2.2,0.7,2.7,2.2
		c0.2,0.6,0.3,1.4,0.3,2.5s-0.2,2.4-0.6,3.7c-0.4,1.4-0.9,2.7-1.6,3.9c-0.7,1.3-1.4,2.4-2.3,3.5s-1.8,2-2.8,2.8
		c-2.1,1.7-4,2.6-5.7,2.6c-3,0-4.5-2-4.5-5.9c0-0.9,0.1-1.8,0.2-2.6C62.3,145.8,60.6,147.8,58.8,149.4z"/>
	<path fill="#58595B" d="M98,134.5c-0.7,0-2.1,1.1-4,3.4l-1.7,2.1l-3.3,4.3c-0.8,1.5-1.4,2.7-1.9,3.7l-1,2.4c-0.3,0.6-0.5,1-0.7,1.2
		s-0.5,0.4-0.9,0.4s-0.7-0.1-1-0.2s-0.6-0.3-0.9-0.5c-0.5-0.4-0.8-0.9-0.8-1.4c0-0.2,0.1-0.6,0.4-1.2L83,147
		c2.5-5.2,4.8-11.9,6.9-19.9c0.8-3,1.3-5.6,1.7-8c0.1-1.1,0.7-1.7,1.7-1.7c0.6,0,1.1,0.1,1.5,0.4c0.8,0.6,1.2,1.2,1.1,1.9
		c0,0.7-0.1,1.4-0.3,2.2s-0.4,1.7-0.6,2.7c-0.3,1-0.6,2-0.9,3.1c-0.9,2.7-1.6,4.7-2,5.9c-1.3,3.7-2.2,5.8-2.5,6.4
		c0.2-0.2,0.5-0.6,0.8-1c2.5-3.2,4-5.2,4.6-5.8c0.6-0.6,1.1-1.1,1.5-1.5c0.9-0.7,1.9-1.1,3.3-1.1c1.1,0,1.9,0.4,2.6,1.1
		c0.6,0.7,0.9,1.4,0.9,2.3c0,0.8-0.1,1.6-0.3,2.2c-0.2,0.7-0.4,1.3-0.7,2c-0.3,0.7-0.6,1.4-0.9,2.1l-1,2.1c-1,2.2-1.4,3.8-1.4,4.8
		c0,0.7,0.3,1.1,0.9,1.1s1.1-0.1,1.6-0.4c0.5-0.2,0.8-0.4,0.9-0.4c0.3,0,0.4,0.1,0.4,0.4c0,1.2-0.6,2.2-1.8,3
		c-0.8,0.6-1.6,0.8-2.3,0.8c-0.7,0-1.3-0.1-1.7-0.2c-0.5-0.1-0.9-0.4-1.2-0.7c-0.8-0.7-1.2-1.8-1.2-3.2c0-1.5,0.5-3.5,1.5-5.8
		l2.2-4.7c0.4-0.9,0.6-1.6,0.6-2.1S98.6,134.5,98,134.5z"/>
	<path fill="#58595B" d="M113.3,148c0.4,0,0.5,0.2,0.5,0.7c0,0.6-0.3,1.2-0.8,1.9c-0.8,1-1.9,1.4-3.3,1.4c-1.6,0-2.7-0.6-3.2-1.9
		c-0.2-0.4-0.3-1-0.3-1.6s0.1-1.3,0.3-2.1c0.2-0.8,0.5-1.6,0.8-2.5s0.7-1.7,1.1-2.6l1.1-2.6c0.8-1.9,1.2-3.2,1.2-3.8s-0.1-1-0.2-1.2
		s-0.3-0.3-0.4-0.5l-0.4-0.3c-0.1-0.1-0.2-0.3-0.2-0.5s0.1-0.5,0.3-0.7c0.2-0.2,0.4-0.4,0.7-0.6c0.6-0.3,1.3-0.5,2.1-0.5
		c2,0,3,0.5,3,1.6c0,1.2-0.3,2.6-1,4.2c-0.6,1.6-1.2,2.8-1.6,3.8l-1.2,2.8c-0.9,2.1-1.3,3.6-1.3,4.5c0,0.6,0.3,0.9,0.9,0.9
		s1-0.1,1.3-0.2C113,148,113.2,148,113.3,148z M117.5,125.9c-0.3,0.3-0.6,0.6-1,0.8c-0.4,0.2-0.8,0.3-1.2,0.4c-0.4,0-0.8,0-1.2-0.2
		c-0.4-0.2-0.7-0.4-1-0.8c-0.6-0.7-0.9-1.4-0.9-2.1s0.1-1.2,0.3-1.6s0.5-0.6,0.8-0.8c0.7-0.4,1.3-0.6,1.8-0.6c0.6,0,1,0,1.3,0.1
		s0.6,0.2,0.9,0.4c0.7,0.4,1,1,1,1.6s-0.1,1.2-0.3,1.6C118,125.2,117.8,125.6,117.5,125.9z"/>
	<path fill="#58595B" d="M117.5,148.2c0-0.4,0.1-0.8,0.3-1.2c0.2-0.4,0.4-0.7,0.7-0.9c0.6-0.5,1.2-0.8,1.8-0.8
		c0.5,0,0.8,0.3,0.8,0.8c0,1.4,0.5,2.4,1.4,3c0.3,0.2,0.7,0.3,1.1,0.3s0.7,0,0.9-0.1s0.5-0.2,0.7-0.4c0.5-0.4,0.7-0.9,0.7-1.4
		s-0.1-1-0.4-1.5c-0.2-0.5-0.6-0.9-0.9-1.4l-1.2-1.6c-1.6-2.2-2.4-4.2-2.4-6c0-1.5,0.6-2.9,1.9-4.1c1.5-1.4,3.3-2.1,5.6-2.1
		c2,0,3.6,0.5,4.7,1.5c0.9,0.8,1.4,1.7,1.4,2.8c0,1.1-0.4,1.9-1.2,2.6c-0.7,0.6-1.5,0.8-2.2,0.6c-0.3-0.1-0.6-0.2-0.8-0.5
		c-0.2-0.3-0.2-0.6-0.1-0.9s0.2-0.7,0.2-1.1s-0.1-0.7-0.2-1s-0.3-0.6-0.6-0.8c-0.5-0.4-1-0.7-1.5-0.7c-0.5,0-1,0.1-1.3,0.2
		s-0.6,0.3-0.9,0.5c-0.5,0.5-0.8,1.1-0.8,1.8s0.1,1.3,0.4,1.8c0.2,0.5,0.5,1,0.9,1.5s0.8,1,1.2,1.6c0.4,0.5,0.8,1.1,1.2,1.7
		c0.9,1.4,1.3,2.6,1.3,3.6s-0.2,1.9-0.7,2.6c-0.4,0.7-1,1.3-1.7,1.8c-1.5,1.1-3.1,1.7-5,1.7c-1.8,0-3.1-0.4-4.2-1.3
		C117.9,150,117.5,149.1,117.5,148.2z"/>
	<path fill="#58595B" d="M149.6,151.9c-3.1,0-5.5-2.9-7.4-8.8c-0.7,1.3-1.3,2.5-1.8,3.6l-1.2,2.8c-0.4,0.8-0.7,1.4-1,1.8
		s-0.6,0.6-1,0.6s-0.7-0.1-1-0.2s-0.6-0.3-0.8-0.5c-0.5-0.4-0.7-0.9-0.7-1.4c0-0.2,0.1-0.6,0.4-1.2l0.8-1.7
		c2.5-5.2,4.8-11.9,6.9-19.9c0.8-3,1.3-5.6,1.7-8c0.1-1.1,0.7-1.7,1.7-1.7c0.6,0,1,0.1,1.4,0.4c0.7,0.6,1.1,1.2,1.1,1.9
		c0,0.7-0.1,1.4-0.3,2.3s-0.4,1.8-0.6,2.8c-0.3,1-0.6,2-0.9,3.1c-0.9,2.8-1.5,4.9-2,6.1l-1.9,5.3c-0.2,0.6-0.4,1.1-0.6,1.4
		c3.2-1.2,5.5-2.7,7.1-4.2c1-1,1.4-1.8,1.4-2.7c0-0.4-0.1-0.7-0.4-0.9c-0.3-0.2-0.5-0.3-0.6-0.4s-0.1-0.3,0-0.6s0.3-0.5,0.8-0.8
		c0.4-0.2,0.9-0.4,1.5-0.4s1.1,0.1,1.5,0.2s0.8,0.3,1,0.5c0.7,0.5,1,1.1,1,2s-0.2,1.7-0.6,2.4c-0.4,0.7-0.9,1.4-1.7,2.1
		c-1.5,1.3-4,2.6-7.4,3.8c0.4,1.8,1.2,3.4,2.3,4.8c1.1,1.3,2.1,2,3,2c0.5,0,0.9-0.1,1.2-0.2l0.7-0.4c0.1-0.1,0.3-0.1,0.4-0.1
		c0.3,0,0.5,0.2,0.5,0.6s-0.1,0.7-0.2,0.9c-0.1,0.3-0.3,0.5-0.5,0.8s-0.5,0.6-0.9,0.9C151.8,151.6,150.7,151.9,149.6,151.9z"/>
	<path fill="#58595B" d="M157.4,151.1c-0.3-0.3-0.5-0.6-0.7-1s-0.3-0.8-0.3-1.3s0.1-1,0.3-1.4s0.4-0.7,0.7-1
		c0.5-0.4,1.1-0.7,1.7-0.7c0.6,0,1.1,0,1.5,0.1s0.8,0.2,1.2,0.4c0.8,0.4,1.3,1.1,1.3,1.9c0,1-0.3,1.9-1,2.7
		c-0.6,0.7-1.3,1.1-1.9,1.2c-0.7,0.1-1.2,0-1.6-0.2C158.1,151.6,157.7,151.4,157.4,151.1z"/>
	<path fill="#58595B" d="M169.1,150.9c-0.3-0.4-0.6-0.8-0.8-1.4s-0.3-1.2-0.3-1.9c0-0.7,0.2-1.7,0.5-2.9c0.3-1.2,0.8-2.6,1.3-4.2
		l1.7-5.1c2.4-7.1,3.8-12.5,4.2-16.4c0.1-1.1,0.7-1.7,1.7-1.7c0.6,0,1.1,0.1,1.5,0.4c0.8,0.6,1.2,1.3,1.1,2
		c-0.1,0.7-0.2,1.6-0.4,2.7s-0.5,2.2-0.9,3.4s-0.8,2.6-1.3,3.9l-2.8,8.3c-1.6,4.7-2.4,7.7-2.4,9.1c0,0.7,0.3,1.1,0.9,1.1
		c0.6,0,1.1-0.1,1.6-0.4c0.5-0.2,0.8-0.4,0.9-0.4c0.3,0,0.4,0.1,0.4,0.4c0,1.2-0.6,2.2-1.9,3c-0.8,0.6-1.6,0.8-2.3,0.8
		s-1.2-0.1-1.7-0.2C169.9,151.6,169.5,151.3,169.1,150.9z"/>
	<path fill="#58595B" d="M179.7,149.8c-0.2-0.4-0.2-1-0.2-1.5c0-0.6,0.1-1.2,0.3-1.9s0.5-1.5,0.8-2.2c0.3-0.8,0.7-1.6,1-2.4l1.1-2.4
		c1.4-3.1,1.9-5,1.6-5.6c-0.2-0.3-0.5-0.5-0.9-0.8c-0.2-0.1-0.2-0.3-0.2-0.5s0.1-0.5,0.3-0.7s0.5-0.4,0.8-0.6c0.7-0.3,1.3-0.5,2-0.5
		s1.2,0.1,1.5,0.2s0.6,0.3,0.8,0.5c0.4,0.4,0.7,0.9,0.7,1.5s-0.1,1.2-0.3,1.8c-0.2,0.7-0.4,1.4-0.7,2.2c-0.3,0.8-0.6,1.6-0.9,2.4
		c-0.9,2.2-1.6,3.7-1.9,4.4l-0.8,1.6c-0.4,0.9-0.6,1.6-0.6,2s0.1,0.6,0.2,0.8c0.1,0.2,0.3,0.2,0.7,0.2s0.7-0.1,1.1-0.4
		c0.4-0.2,0.8-0.6,1.3-1c0.4-0.4,0.9-0.9,1.4-1.4s1-1.1,1.4-1.7c1.2-1.5,2.1-2.8,2.7-3.9c2.9-5.4,4.5-8.2,4.7-8.5
		c0.4-0.6,0.9-0.9,1.4-0.9s0.9,0.1,1.2,0.2s0.6,0.2,0.9,0.4c0.5,0.4,0.7,0.8,0.5,1.3s-0.5,1.2-0.8,2c-2.6,7.5-4.3,12.1-5,14
		c-0.8,1.8-1.4,3.3-2,4.5s-1.2,2.3-2,3.4s-1.6,2.2-2.5,3.1c-2,2.1-3.8,3.3-5.6,3.4c-0.7,0.1-1.2,0-1.6-0.3c-0.7-0.4-1-0.8-1-1.2
		s0.3-0.6,0.9-0.8c0.6-0.2,1.3-0.4,1.9-0.9c0.7-0.4,1.3-0.9,1.9-1.5c1.8-1.7,3.2-3.6,4.2-5.6c0.8-1.8,1.5-3.4,2-5l1.6-4.8
		c-0.4,0.5-0.8,1-1.3,1.7l-1.5,2c-1.3,1.6-2.3,2.8-3.2,3.4c-1.6,1.3-3,1.9-4.3,1.9C181.4,152,180.3,151.2,179.7,149.8z"/>
</g>
<g>
	<g>
		<path fill="none" stroke="#0097A7" stroke-width="0.28" stroke-miterlimit="10" d="M22,119.1c0.9-1.6,2.2-2.6,4-2.5
			c1.6,0.1,2.9,0.9,3.8,2.4c2.8,1,4.5,3.2,5.4,6.1c-0.7-5.8-3.2-10-9.1-9.9c-4.5,0.1-7.1,2.6-8.4,6.5
			C18.7,120.6,20.2,119.7,22,119.1z"/>
		<path fill="none" stroke="#0097A7" stroke-width="0.28" stroke-miterlimit="10" d="M29.7,119c-0.9-1.5-2.1-2.3-3.8-2.4
			c-1.8-0.1-3.1,0.9-4,2.5c0.8-0.2,1.7-0.4,2.7-0.5C26.6,118.4,28.3,118.5,29.7,119z"/>
		<path fill="none" stroke="#0097A7" stroke-width="0.28" stroke-miterlimit="10" d="M30.9,158.6l0.3-0.1
			c4.5-10.1,9.3-24.2,4.5-30.8C37.7,139.5,30.9,158.6,30.9,158.6z"/>
		<path fill="none" stroke="#0097A7" stroke-width="0.28" stroke-miterlimit="10" d="M21.1,158.7c-0.1,0.2-0.9-2.5-2-6.1
			c-2-5-4.4-12.4-4.7-19c-1.3,10.3,6.3,25,6.3,25"/>
		<path fill="none" stroke="#0097A7" stroke-width="0.28" stroke-miterlimit="10" d="M35.7,127.7c-0.2-0.9-0.4-1.8-0.6-2.6
			c0.1,0.6,0.1,1.3,0.2,2C35.4,127.3,35.6,127.5,35.7,127.7z"/>
		<path fill="none" stroke="#0097A7" stroke-width="0.28" stroke-miterlimit="10" d="M16.7,127.1c0.1-2,0.4-3.8,1-5.4
			c-2.8,2.8-3.5,7.1-3.3,11.9c0.3-2,0.9-3.9,1.9-5.4C16.4,127.8,16.5,127.5,16.7,127.1z"/>
		<path fill="none" stroke="#0097A7" stroke-width="0.28" stroke-miterlimit="10" d="M29.7,119c0.9,1.4,1.4,3.3,1.8,5.6
			c1.6,0.5,2.8,1.4,3.8,2.5c0-0.7-0.1-1.3-0.2-2C34.2,122.2,32.5,120,29.7,119z"/>
		<path fill="none" stroke="#0097A7" stroke-width="0.28" stroke-miterlimit="10" d="M20.7,122.6c0.3-1.4,0.7-2.6,1.3-3.5
			c-1.8,0.5-3.2,1.4-4.3,2.5c-0.5,1.6-0.9,3.5-1,5.4C17.4,125.1,18.7,123.5,20.7,122.6z"/>
		<path fill="none" stroke="#0097A7" stroke-width="0.28" stroke-miterlimit="10" d="M25.6,122.1c0.1-0.7,0.2-1.1,0.4-1.1
			c0.2,0,0.3,0.4,0.4,1.2c1.4,0.3,2.5,1,3.4,2c0.6,0.1,1.2,0.3,1.7,0.4c-0.3-2.3-0.9-4.2-1.8-5.6c-1.4-0.5-3.1-0.7-5.1-0.4
			c-1,0.1-1.9,0.3-2.7,0.5c-0.5,1-1,2.1-1.3,3.5c0.9-0.4,1.9-0.6,3.1-0.7C24.4,121.9,25,122,25.6,122.1z"/>
		<path fill="none" stroke="#0097A7" stroke-width="0.28" stroke-miterlimit="10" d="M25.9,121c-0.2,0-0.3,0.4-0.4,1.1
			c0.3,0,0.5,0.1,0.8,0.2C26.2,121.4,26.1,121,25.9,121z"/>
		<path fill="none" stroke="#0097A7" stroke-width="0.28" stroke-miterlimit="10" d="M30.9,158.6c0,0,6.8-19.1,4.8-30.9
			c-0.1-0.2-0.3-0.4-0.5-0.6c0.3,6.9-1.5,15.5-3.3,22c-0.9,5.4-2.1,9.5-2.1,9.5"/>
		<path fill="none" stroke="#0097A7" stroke-width="0.28" stroke-miterlimit="10" d="M16.3,128.1c-1.1,1.5-1.7,3.4-1.9,5.4
			c0.4,6.6,2.8,14,4.7,19C17,145.8,14.4,135,16.3,128.1z"/>
		<path fill="none" stroke="#0097A7" stroke-width="0.28" stroke-miterlimit="10" d="M32,149.1c1.7-6.5,3.6-15.1,3.3-22
			c-0.9-1.1-2.2-1.9-3.8-2.5c0.1,0.9,0.2,1.9,0.3,2.9C34,133.3,33.2,142.3,32,149.1z"/>
		<path fill="none" stroke="#0097A7" stroke-width="0.28" stroke-miterlimit="10" d="M31.8,127.6c-0.1-1-0.2-2-0.3-2.9
			c-0.5-0.2-1.1-0.3-1.7-0.4C30.6,125.1,31.3,126.2,31.8,127.6z"/>
		<path fill="none" stroke="#0097A7" stroke-width="0.28" stroke-miterlimit="10" d="M21.7,158.6c0,0-1.2-2.4-2.6-6
			c1.1,3.6,1.9,6.2,1.9,6.2"/>
		<path fill="none" stroke="#0097A7" stroke-width="0.28" stroke-miterlimit="10" d="M16.7,127.1c-0.1,0.3-0.2,0.7-0.3,1
			c0.1-0.1,0.2-0.3,0.3-0.4C16.6,127.5,16.6,127.3,16.7,127.1z"/>
		<path fill="none" stroke="#0097A7" stroke-width="0.28" stroke-miterlimit="10" d="M20.3,125c0.1-0.8,0.2-1.6,0.4-2.4
			c-2,0.8-3.2,2.4-4,4.5c0,0.2,0,0.4,0,0.6C17.5,126.6,18.7,125.7,20.3,125z"/>
		<path fill="none" stroke="#0097A7" stroke-width="0.28" stroke-miterlimit="10" d="M26.4,122.2c0.1,0.5,0.1,1,0.2,1.7
			c0.2,0,0.4,0,0.7,0c0.9,0,1.8,0.1,2.6,0.3C28.8,123.2,27.7,122.6,26.4,122.2z"/>
		<path fill="none" stroke="#0097A7" stroke-width="0.28" stroke-miterlimit="10" d="M25.4,123.9c0-0.8,0.1-1.4,0.2-1.9
			c-0.6-0.1-1.1-0.1-1.8-0.1c-1.2,0.1-2.2,0.3-3.1,0.7c-0.2,0.7-0.3,1.5-0.4,2.4C21.7,124.4,23.4,124,25.4,123.9z"/>
		<path fill="none" stroke="#0097A7" stroke-width="0.28" stroke-miterlimit="10" d="M25.6,122.1c-0.1,0.5-0.1,1.1-0.2,1.9
			c0.4,0,0.7,0,1.1,0c0-0.7-0.1-1.2-0.2-1.7C26.1,122.2,25.8,122.1,25.6,122.1z"/>
		<path fill="none" stroke="#0097A7" stroke-width="0.28" stroke-miterlimit="10" d="M22.7,159.4c0,0-6.7-18.8-6.1-31.6
			c-0.1,0.1-0.2,0.3-0.3,0.4c-1.9,6.8,0.7,17.7,2.8,24.4c1.4,3.6,2.8,6.6,2.8,6.6"/>
		<path fill="none" stroke="#0097A7" stroke-width="0.28" stroke-miterlimit="10" d="M29.8,159.2c0,0,1.3-4.7,2.2-10.1
			c-1.5,5.5-2.9,9.5-2.9,9.5"/>
		<path fill="none" stroke="#0097A7" stroke-width="0.28" stroke-miterlimit="10" d="M23.1,158.6c0,0-4.4-21.3-2.8-33.6
			c-1.5,0.7-2.7,1.6-3.6,2.7c-0.7,12.8,5.7,30.9,5.7,30.9"/>
		<path fill="none" stroke="#0097A7" stroke-width="0.28" stroke-miterlimit="10" d="M28.8,159.5c0,0,1.8-4.9,3.3-10.4
			c1.2-6.8,2-15.8-0.2-21.5c0.9,12.4-3.1,31-3.1,31"/>
		<path fill="none" stroke="#0097A7" stroke-width="0.28" stroke-miterlimit="10" d="M28.5,159.5c0,0,4.1-19.6,3.3-32
			c-0.5-1.3-1.2-2.5-2.1-3.4c-0.8-0.1-1.6-0.2-2.6-0.3c-0.2,0-0.4,0-0.7,0l0,0c0.2,0,0.4,0,0.7,0c8,1.1,0.6,34.6,0.6,34.6"/>
		<path fill="none" stroke="#0097A7" stroke-width="0.28" stroke-miterlimit="10" d="M25.3,158.6c0,0-5-29.5,0.1-34.1
			c0-0.2,0-0.4,0-0.6c-2,0.1-3.7,0.5-5.1,1.1c-1.6,12.2,3,34.5,3,34.5"/>
		<path fill="none" stroke="#0097A7" stroke-width="0.28" stroke-miterlimit="10" d="M25.4,123.9c0,0.2,0,0.4,0,0.6
			c0.3-0.3,0.7-0.5,1.2-0.6l0,0C26.1,123.9,25.8,123.9,25.4,123.9z"/>
		<path fill="none" stroke="#0097A7" stroke-width="0.28" stroke-miterlimit="10" d="M26,159.9c0,0-1.1-26-0.6-35.4
			c-5.1,4.6,0.1,35.3,0.1,35.3"/>
		<path fill="none" stroke="#0097A7" stroke-width="0.28" stroke-miterlimit="10" d="M27.6,159.7c0,0,7.6-34.7-0.4-35.8
			c-0.2,0-0.5,0-0.7,0c0.6,8.8,0,34.6,0,34.6"/>
		<path fill="none" stroke="#0097A7" stroke-width="0.28" stroke-miterlimit="10" d="M26.5,159.8c0,0,0.7-27,0.1-35.9
			c-0.4,0.1-0.8,0.3-1.2,0.6c-0.5,9.3,0.6,35.3,0.6,35.3"/>
	</g>
	<path fill="none" stroke="#0097A7" stroke-width="0.28" stroke-miterlimit="10" d="M20.7,158.5c0.9,0.5,2.8,1.4,5.5,1.3
		c2.5-0.1,4.3-0.8,5.2-1.3"/>
</g>
</svg>
